 <svg  version="1.0" xmlns="http://www.w3.org/2000/svg"  width="1096.000000pt" height="488.000000pt" viewBox="0 0 1096.000000 488.000000"  preserveAspectRatio="xMidYMid meet">  <g transform="translate(0.000000,488.000000) scale(0.100000,-0.100000)" fill="#f2cb07" stroke="none"> <path d="M1593 4643 c-96 -131 -127 -232 -127 -408 0 -105 4 -130 28 -200 71 -203 187 -360 399 -543 l39 -33 -16 -40 c-42 -105 2 -253 92 -310 81 -52 145 -60 231 -32 126 40 197 160 177 297 -11 71 -92 182 -262 356 -242 249 -325 368 -360 518 -28 122 7 230 95 289 50 34 163 60 274 64 117 5 -5 39 -138 39 -152 0 -237 -49 -301 -176 -38 -76 -39 -79 -38 -183 0 -88 5 -117 26 -173 47 -126 223 -339 386 -470 l73 -58 -38 0 c-49 -1 -119 -32 -161 -73 l-33 -32 -36 40 c-20 22 -60 66 -90 98 -29 32 -61 70 -70 85 -9 15 -31 50 -48 77 -38 60 -98 216 -115 300 -6 33 -15 76 -19 95 -8 41 -6 183 3 255 11 82 36 166 66 228 16 31 25 57 20 57 -4 0 -30 -30 -57 -67z m548 -20 c28 -6 16 -9 -65 -19 -140 -18 -218 -58 -263 -133 -40 -68 -50 -126 -33 -211 31 -159 121 -289 390 -565 191 -196 240 -272 240 -370 0 -94 -48 -174 -131 -220 -45 -24 -66 -29 -124 -29 -59 0 -78 4 -117 27 -148 87 -172 285 -49 400 49 46 99 67 159 67 17 0 32 4 32 9 0 4 -26 29 -57 54 -160 126 -324 315 -384 440 -57 120 -62 270 -13 373 44 93 104 147 194 175 32 9 177 11 221 2z m-608 -235 c-16 -183 -4 -285 52 -438 13 -38 55 -132 73 -165 3 -5 -1 -4 -10 3 -19 15 -95 161 -112 217 -7 22 -19 60 -27 85 -19 60 -18 276 0 310 8 13 14 37 13 52 0 15 4 28 9 28 7 0 8 -32 2 -92z"/> <path d="M2061 3518 c-158 -78 -156 -308 4 -391 141 -72 315 41 315 205 0 53 -48 138 -98 173 -58 40 -155 46 -221 13z m185 -4 c71 -34 124 -118 124 -200 0 -49 -47 -132 -92 -162 -58 -38 -149 -43 -214 -12 -53 26 -99 89 -109 150 -15 88 41 188 125 224 46 20 124 20 166 0z"/> <path d="M2121 3499 c-68 -26 -94 -45 -116 -84 -83 -141 53 -314 205 -260 54 19 76 38 103 90 27 54 25 114 -6 168 -38 64 -130 107 -186 86z m123 -53 c62 -40 78 -151 31 -212 -35 -46 -60 -57 -128 -57 -54 0 -61 3 -94 36 -31 30 -37 44 -41 90 -6 78 17 123 80 152 53 25 106 22 152 -9z"/> <path d="M2441 4580 c-46 -11 -111 -41 -111 -52 0 -10 3 -10 36 2 44 17 144 20 144 4 0 -7 -6 -11 -13 -9 -17 7 -87 -52 -87 -73 0 -31 41 -86 124 -167 68 -66 91 -98 136 -183 29 -57 87 -147 129 -200 100 -126 111 -145 111 -182 0 -36 15 -32 24 6 9 35 -26 106 -104 208 -47 62 -65 98 -85 162 -29 94 -70 147 -195 249 -84 69 -88 87 -29 142 22 21 52 44 65 51 28 15 31 29 7 36 -39 10 -120 14 -152 6z m103 -28 c3 -5 -1 -9 -9 -9 -8 0 -15 4 -15 9 0 4 4 8 9 8 6 0 12 -4 15 -8z m-77 -92 c-11 -30 -27 -41 -27 -18 0 10 28 48 36 48 1 0 -3 -13 -9 -30z m214 -281 c16 -26 32 -65 35 -86 l5 -38 -15 38 c-16 42 -57 107 -95 151 l-26 29 33 -24 c18 -13 46 -44 63 -70z"/> <path d="M2094 4505 c-147 -46 -228 -137 -228 -255 0 -61 20 -133 35 -125 5 4 9 21 9 38 0 139 101 269 245 317 36 12 65 26 65 31 0 13 -78 9 -126 -6z m96 -2 c-8 -3 -40 -15 -70 -26 -67 -25 -152 -103 -186 -169 -13 -27 -27 -76 -31 -110 -8 -79 -21 -52 -22 45 -1 111 58 193 170 234 30 11 61 23 69 26 8 3 31 5 50 5 19 0 28 -2 20 -5z"/> <path d="M2083 4290 c-54 -24 -96 -86 -97 -142 -1 -49 19 -62 28 -17 3 17 16 47 28 67 23 37 100 92 130 92 10 0 18 5 18 10 0 16 -61 10 -107 -10z m26 -18 c-56 -36 -73 -56 -98 -112 -21 -48 -27 -37 -11 19 12 44 45 79 95 102 59 27 65 23 14 -9z"/> <path d="M2171 4209 c-31 -29 -61 -96 -61 -139 0 -74 88 -183 189 -234 52 -27 68 -31 170 -47 71 -10 113 -36 158 -96 16 -21 43 -52 61 -71 29 -30 37 -34 69 -29 35 6 78 35 68 46 -3 3 -24 4 -46 2 -39 -3 -44 1 -107 68 -71 75 -111 98 -229 132 -119 34 -238 125 -269 205 -19 51 -14 116 11 144 26 28 14 45 -14 19z m102 -309 c34 -23 47 -40 30 -40 -17 0 -110 81 -127 111 l-19 34 39 -40 c22 -22 56 -51 77 -65z"/> <path d="M1171 3497 c-6 -6 -11 -27 -11 -46 l0 -34 23 20 c14 13 39 21 70 22 l48 3 -3 -176 c-2 -97 0 -176 5 -176 4 0 7 81 7 180 l0 180 -54 0 c-38 0 -60 -5 -71 -17 -16 -15 -17 -15 -13 8 l3 24 169 3 169 2 -6 -35 c-3 -20 -2 -35 4 -35 6 0 9 18 7 40 l-3 40 -167 4 c-111 3 -170 0 -177 -7z"/> <path d="M1567 3503 c-13 -12 -7 -22 16 -25 21 -3 22 -6 25 -148 3 -163 -2 -210 -23 -210 -8 0 -15 -4 -15 -9 0 -5 36 -9 80 -9 44 0 80 4 80 8 0 5 -10 10 -22 12 -21 3 -23 9 -26 76 -3 66 -1 72 17 72 13 0 34 -20 60 -59 61 -89 92 -111 157 -111 30 0 54 5 54 10 0 6 -7 10 -15 10 -20 0 -87 62 -131 121 l-35 49 29 37 c38 48 44 78 27 119 -21 50 -58 64 -173 64 -54 0 -102 -3 -105 -7z m247 -33 c37 -34 35 -84 -5 -138 -18 -25 -27 -47 -23 -54 27 -46 102 -133 128 -149 l31 -19 -42 0 c-48 0 -87 32 -139 114 -29 47 -66 68 -86 48 -5 -5 -8 -43 -6 -86 l3 -76 -30 0 -30 0 3 166 c4 182 1 211 -26 216 -9 3 31 4 90 3 98 0 109 -2 132 -25z"/> <path d="M1674 3467 c-3 -8 -4 -49 -2 -93 3 -74 4 -79 27 -82 12 -2 33 -1 45 2 40 10 59 86 35 139 -18 40 -93 64 -105 34z m81 -22 c18 -17 25 -35 25 -62 0 -54 -23 -83 -66 -83 l-34 0 0 85 c0 84 0 85 25 85 14 0 37 -11 50 -25z"/> <path d="M2437 3503 c-12 -11 -8 -21 13 -26 19 -5 20 -13 19 -169 -1 -212 -8 -270 -39 -303 -35 -37 -16 -43 32 -9 74 52 83 81 86 298 3 133 0 186 -7 181 -7 -4 -11 -70 -11 -191 0 -198 -2 -207 -53 -261 -39 -42 -55 -43 -25 -2 22 30 23 37 23 251 l0 220 53 -5 c56 -6 72 7 21 17 -41 8 -104 8 -112 -1z"/> <path d="M2721 3378 c-87 -221 -97 -243 -120 -254 -35 -18 -33 -20 22 -20 29 -1 40 1 25 3 l-28 4 19 37 c10 20 39 92 65 159 25 68 54 139 64 160 l19 37 15 -30 c9 -16 37 -85 63 -154 57 -151 80 -197 103 -208 25 -12 172 -15 172 -3 0 5 -10 11 -22 13 -21 3 -23 10 -29 83 l-5 80 -2 -75 c-1 -48 2 -80 10 -88 9 -9 5 -12 -17 -12 l-30 0 3 195 c2 147 6 193 15 188 7 -3 73 -70 147 -149 74 -79 138 -144 143 -144 8 0 8 126 -2 220 -5 58 -9 65 -31 71 -17 5 -6 7 35 8 45 0 56 -2 43 -10 -16 -9 -18 -29 -18 -188 0 -98 -3 -181 -6 -184 -12 -12 -59 31 -174 157 -63 68 -117 123 -121 120 -4 -2 60 -72 141 -155 82 -85 152 -149 158 -145 7 4 11 72 12 193 1 153 3 189 15 196 8 4 15 12 15 18 0 15 -122 7 -128 -8 -2 -8 5 -13 17 -13 11 0 22 -3 24 -7 3 -5 8 -64 11 -133 l7 -125 -143 148 c-79 81 -149 147 -155 147 -9 0 -13 -48 -15 -192 l-3 -193 -37 -3 c-44 -4 -49 4 -110 167 -57 152 -89 221 -103 221 -7 0 -36 -60 -64 -132z"/> <path d="M1372 3298 l2 -173 3 168 3 167 41 0 c22 0 49 -5 60 -10 11 -6 19 -7 19 -1 0 14 -27 21 -81 21 l-49 0 2 -172z"/> <path d="M2740 3341 c-12 -33 -19 -65 -15 -70 8 -14 82 -14 90 0 4 5 2 23 -4 40 -6 16 -16 43 -22 59 -6 17 -15 30 -19 30 -4 0 -18 -27 -30 -59z m53 -10 c9 -27 17 -50 17 -52 0 -2 -18 -4 -40 -4 -26 0 -39 4 -36 11 3 7 10 30 17 53 7 23 15 41 18 41 4 0 14 -22 24 -49z"/> <path d="M3071 3330 c0 -40 2 -42 11 -22 8 16 8 28 0 45 -9 19 -11 17 -11 -23z"/> <path d="M2685 3186 c-16 -45 -16 -57 -6 -70 15 -18 31 -21 31 -6 0 6 -7 10 -15 10 -19 0 -19 6 1 63 l16 47 58 0 59 0 20 -55 c12 -31 21 -60 21 -65 0 -6 19 -9 43 -8 40 1 41 1 6 5 -33 4 -37 8 -54 56 -26 74 -29 77 -100 77 l-62 0 -18 -54z"/> <path d="M1387 3107 c4 -6 -17 -8 -60 -5 -37 3 -67 2 -67 -3 0 -5 38 -9 85 -9 81 0 114 12 60 22 -15 3 -22 1 -18 -5z"/> </g> </svg> 